<svg xmlns="http://www.w3.org/2000/svg" viewBox="0 0 64 64" role="img" aria-labelledby="title desc">
  <title id="title">HelloLangChain</title>
  <desc id="desc">A multi-model LangChain chat workspace icon.</desc>
  <rect width="64" height="64" rx="14" fill="#0f8f7b"/>
  <path d="M18 19.5c0-3.6 2.9-6.5 6.5-6.5h15c3.6 0 6.5 2.9 6.5 6.5v13c0 3.6-2.9 6.5-6.5 6.5H32l-8.2 7.5c-1.2 1.1-3.1.2-3.1-1.4V39h-2.2c-3.6 0-6.5-2.9-6.5-6.5v-13Z" fill="#fff"/>
  <path d="M24 25h16M24 32h10" stroke="#0f8f7b" stroke-width="4" stroke-linecap="round"/>
  <path d="M46.5 27.5 49 35l7.5 2.5L49 40l-2.5 7.5L44 40l-7.5-2.5L44 35l2.5-7.5Z" fill="#315fbd"/>
  <path d="M14 15.5 16 21l5.5 2L16 25l-2 5.5L12 25l-5.5-2L12 21l2-5.5Z" fill="#d8f4f1"/>
</svg>
